<svg width="582" height="200" viewBox="0 0 582 200" fill="none" xmlns="http://www.w3.org/2000/svg">
<g clip-path="url(#clip0_212_8567)">
<g filter="url(#filter0_d_212_8567)">
<mask id="mask0_212_8567" style="mask-type:luminance" maskUnits="userSpaceOnUse" x="0" y="0" width="582" height="199">
<path d="M582 0H0V198.995H582V0Z" fill="white"/>
</mask>
<g mask="url(#mask0_212_8567)">
<path d="M311.879 25.998H264.632C237.334 25.998 215.195 48.2292 215.195 75.654V129.951C215.195 157.376 237.324 179.617 264.632 179.617H311.879C339.177 179.617 361.315 157.386 361.315 129.951V75.654C361.315 48.2292 339.187 25.998 311.879 25.998ZM334.057 120.177L332.927 119.704C332.907 119.644 332.887 119.584 332.857 119.524C330.957 114.149 329.987 108.524 329.987 102.818C329.987 97.1116 330.977 91.3554 332.927 85.9207L334.057 85.4486V120.177ZM334.057 75.664V82.0632L331.737 83.0275C326.518 80.5563 321.808 77.2312 317.728 73.1225C317.118 72.5097 316.128 72.5097 315.518 73.1225C314.908 73.7353 314.908 74.7298 315.518 75.3426C319.198 79.0494 323.358 82.1536 327.927 84.6148L319.188 88.2513C312.659 83.8412 307.139 78.296 302.759 71.7462L306.379 62.9663C307.749 65.5279 309.319 67.9791 311.089 70.2795C311.619 70.9626 312.589 71.0932 313.278 70.5608C313.958 70.0284 314.088 69.054 313.558 68.3608C311.369 65.5078 309.489 62.4037 307.959 59.1388L310.329 53.3826H311.889C324.118 53.3826 334.067 63.3781 334.067 75.664H334.057ZM329.117 118.127L320.378 114.491C319.628 110.653 319.248 106.725 319.248 102.818C319.248 98.9098 319.628 94.9819 320.378 91.1445L329.117 87.5079C327.628 92.4705 326.868 97.6039 326.868 102.818C326.868 108.031 327.628 113.165 329.117 118.127ZM247.393 87.5079L256.132 91.1445C256.882 94.9819 257.262 98.9098 257.262 102.818C257.262 106.725 256.882 110.653 256.132 114.491L247.393 118.127C248.883 113.165 249.643 108.031 249.643 102.818C249.643 97.6039 248.883 92.4705 247.393 87.5079ZM316.958 113.064L308.839 109.679C308.619 107.398 308.509 105.098 308.509 102.808C308.509 102.777 308.509 102.747 308.509 102.717C308.509 100.467 308.619 98.1865 308.839 95.9363L316.968 92.5509C316.418 95.9363 316.138 99.3719 316.138 102.797C316.138 106.223 316.418 109.659 316.968 113.044L316.958 113.064ZM259.552 92.571L267.682 95.9564C267.902 98.2367 268.012 100.537 268.012 102.828C268.012 102.858 268.012 102.888 268.012 102.918C268.012 105.168 267.902 107.449 267.682 109.699L259.552 113.084C260.102 109.699 260.382 106.263 260.382 102.838C260.382 99.4121 260.102 95.9765 259.552 92.591V92.571ZM268.862 112.582C272.391 115.495 275.631 118.76 278.531 122.296L275.171 130.453C271.161 124.848 266.332 119.996 260.742 115.957L268.862 112.582ZM305.379 102.908C305.379 104.716 305.449 106.524 305.589 108.333L292.33 102.818L305.589 97.3025C305.449 99.1409 305.379 100.989 305.379 102.818C305.379 102.848 305.379 102.878 305.379 102.908ZM288.25 106.906L293.75 120.237C291.93 120.106 290.09 120.036 288.25 120.036C286.41 120.036 284.58 120.106 282.761 120.237L288.25 106.906ZM279.881 119.031C277.491 116.239 274.891 113.627 272.111 111.226L285.37 105.711L279.881 119.031ZM282.761 85.3983C286.4 85.6696 290.11 85.6696 293.75 85.3983L288.25 98.729L282.761 85.3983ZM291.14 105.711L304.399 111.226C301.619 113.627 299.019 116.239 296.63 119.031L291.14 105.711ZM291.14 99.9244L296.63 86.6038C299.019 89.3965 301.619 92.0084 304.399 94.4093L291.14 99.9244ZM295.1 82.1435C290.59 82.5755 285.94 82.5755 281.421 82.1435L278.061 73.9864C284.78 75.0814 291.74 75.0814 298.46 73.9864L295.1 82.1435ZM285.38 99.9244L272.121 94.4093C274.901 92.0084 277.501 89.3965 279.891 86.6038L285.38 99.9244ZM284.19 102.818L270.931 108.333C271.071 106.494 271.141 104.646 271.141 102.818C271.141 102.787 271.141 102.757 271.141 102.727C271.141 100.919 271.071 99.1107 270.931 97.3025L284.19 102.818ZM281.431 123.492C285.94 123.06 290.59 123.06 295.11 123.492L298.469 131.649C291.75 130.554 284.79 130.554 278.071 131.649L281.431 123.492ZM297.99 122.296C300.889 118.75 304.139 115.495 307.659 112.582L315.778 115.957C310.199 119.986 305.359 124.848 301.349 130.453L297.99 122.296ZM307.659 93.0532C304.129 90.1399 300.889 86.875 297.99 83.339L301.349 75.1818C305.359 80.7873 310.189 85.6394 315.778 89.6778L307.659 93.0532ZM299.889 70.5508C292.28 72.0476 284.27 72.0476 276.651 70.5508L273.031 61.7708C282.971 64.7845 293.57 64.7845 303.509 61.7708L299.889 70.5508ZM271.461 57.9434L269.581 53.3927H306.969L305.089 57.9434C294.22 61.8713 282.331 61.8713 271.461 57.9434ZM273.781 71.7462C271.701 74.8604 269.322 77.7937 266.692 80.4759C266.092 81.0887 266.092 82.0832 266.712 82.696C267.322 83.2988 268.312 83.2988 268.912 82.6759C271.191 80.3554 273.291 77.8439 275.191 75.1919L278.551 83.349C275.651 86.8951 272.401 90.1499 268.882 93.0632L260.762 89.6878C262.092 88.7235 263.382 87.7088 264.632 86.654C265.292 86.0915 265.372 85.107 264.822 84.444C264.262 83.781 263.282 83.7006 262.622 84.2531C260.942 85.6796 259.172 87.0157 257.342 88.2513L248.603 84.6148C257.742 79.6823 265.252 72.138 270.151 62.9663L273.771 71.7462H273.781ZM257.352 117.384C263.882 121.794 269.401 127.339 273.781 133.889L273.001 135.778C272.671 136.581 273.051 137.495 273.841 137.827C274.031 137.907 274.241 137.947 274.441 137.947C275.051 137.947 275.631 137.586 275.881 136.983L276.661 135.094C284.27 133.598 292.28 133.598 299.899 135.094L303.519 143.874C293.58 140.861 282.981 140.861 273.041 143.874L274.031 141.463C274.361 140.66 273.981 139.746 273.191 139.414C272.391 139.083 271.481 139.464 271.151 140.258L270.161 142.669C265.252 133.477 257.762 125.953 248.613 121.02L257.352 117.384ZM271.471 147.692C282.341 143.764 294.23 143.764 305.099 147.692L306.979 152.242H269.591L271.471 147.682V147.692ZM302.789 133.889C307.169 127.339 312.689 121.784 319.218 117.384L327.957 121.02C318.818 125.953 311.309 133.497 306.409 142.669L302.789 133.889ZM264.672 53.3826H266.222L268.592 59.1388C263.692 69.5964 255.292 78.0549 244.863 83.0074C244.843 83.0074 244.833 83.0175 244.823 83.0275L242.493 82.0632V75.664C242.493 63.3781 252.443 53.3826 264.672 53.3826ZM242.493 85.4486L243.623 85.9207C243.643 85.981 243.663 86.0412 243.693 86.1015C245.593 91.486 246.563 97.1016 246.563 102.808C246.563 108.513 245.573 114.27 243.623 119.704L242.493 120.177V85.4486ZM242.493 129.961V123.562L244.823 122.598C255.282 127.54 263.682 135.989 268.602 146.486L266.232 152.242H264.682C252.453 152.242 242.503 142.247 242.503 129.961H242.493ZM311.919 152.242H310.369L307.999 146.486C312.899 136.029 321.298 127.57 331.717 122.618C331.737 122.618 331.757 122.598 331.767 122.588L334.097 123.552V129.951C334.097 142.237 324.148 152.232 311.919 152.232V152.242Z" fill="url(#paint0_linear_212_8567)"/>
<path d="M145.47 25.998V89.1655H64.8855C55.0762 89.1655 47.0768 81.1289 47.0768 71.2741V25.998H19.8186V71.2741C19.8186 88.7938 29.718 104.043 44.257 111.527C50.4365 114.722 57.426 116.55 64.8755 116.55H91.8737C99.4732 126.435 103.903 138.44 104.503 150.987L98.7732 156.753C98.0233 157.506 98.0333 158.722 98.7732 159.465C98.9532 159.646 99.1732 159.787 99.3932 159.877C100.083 160.169 100.913 160.028 101.473 159.455L107.203 153.689C121.352 154.352 134.821 159.937 145.31 169.511V177.658C145.31 177.899 145.37 178.12 145.45 178.331V179.697H172.708V25.998H145.45H145.47ZM122.592 116.54C124.371 120.327 125.881 124.245 127.101 128.253L119.492 135.908C117.902 129.117 115.422 122.638 112.112 116.54H122.602H122.592ZM138.73 116.54L130.141 125.179C129.171 122.246 128.051 119.363 126.791 116.54H138.73ZM129.801 130.966C135.121 132.593 140.39 134.783 145.3 137.395V148.214C138.201 143.814 130.321 140.539 122.192 138.62L129.801 130.966ZM145.29 133.075C143.29 132.061 141.23 131.116 139.16 130.262C137.081 129.399 134.971 128.615 132.841 127.912L144.13 116.55H145.28V133.085L145.29 133.075ZM110.782 150.103L113.032 147.842C113.782 147.089 113.782 145.873 113.032 145.13C112.282 144.377 111.072 144.377 110.332 145.13L108.083 147.39C106.963 136.27 103.013 125.651 96.6434 116.54H107.713C111.782 123.562 114.662 131.136 116.282 139.143L114.522 140.911C113.772 141.664 113.772 142.88 114.522 143.623C114.702 143.804 114.912 143.945 115.142 144.035C115.832 144.326 116.662 144.186 117.222 143.613L118.982 141.835C128.311 143.714 137.381 147.481 145.31 152.765V164.418C135.461 156.331 123.452 151.338 110.782 150.083V150.103Z" fill="url(#paint1_linear_212_8567)"/>
<path d="M529.444 25.998V89.1655H448.859C439.05 89.1655 431.05 81.1289 431.05 71.2741V25.998H403.792V71.2741C403.792 88.7938 413.692 104.043 428.231 111.527C434.41 114.722 441.4 116.55 448.849 116.55H475.847C483.447 126.435 487.876 138.44 488.476 150.987L482.747 156.753C481.997 157.506 482.007 158.722 482.747 159.465C482.927 159.646 483.147 159.787 483.367 159.877C484.057 160.169 484.887 160.028 485.447 159.455L491.176 153.689C505.325 154.352 518.794 159.937 529.284 169.511V177.658C529.284 177.899 529.344 178.12 529.424 178.331V179.697H556.682V25.998H529.424H529.444ZM506.565 116.54C508.345 120.327 509.855 124.245 511.075 128.253L503.465 135.908C501.876 129.117 499.396 122.638 496.086 116.54H506.575H506.565ZM522.704 116.54L514.115 125.179C513.145 122.246 512.025 119.363 510.765 116.54H522.704ZM513.775 130.966C519.094 132.593 524.364 134.783 529.274 137.395V148.214C522.174 143.814 514.295 140.539 506.165 138.62L513.775 130.966ZM529.264 133.075C527.264 132.061 525.204 131.116 523.134 130.262C521.054 129.399 518.944 128.615 516.814 127.912L528.104 116.55H529.254V133.085L529.264 133.075ZM494.756 150.103L497.006 147.842C497.756 147.089 497.756 145.873 497.006 145.13C496.256 144.377 495.046 144.377 494.306 145.13L492.056 147.39C490.936 136.27 486.987 125.651 480.617 116.54H491.686C495.756 123.562 498.636 131.136 500.256 139.143L498.496 140.911C497.746 141.664 497.746 142.88 498.496 143.623C498.676 143.804 498.886 143.945 499.116 144.035C499.806 144.326 500.636 144.186 501.196 143.613L502.955 141.835C512.285 143.714 521.354 147.481 529.284 152.765V164.418C519.434 156.331 507.425 151.338 494.756 150.083V150.103Z" fill="url(#paint2_linear_212_8567)"/>
</g>
</g>
<mask id="mask1_212_8567" style="mask-type:luminance" maskUnits="userSpaceOnUse" x="0" y="1" width="582" height="199">
<path d="M582 1.00439H0V200H582V1.00439Z" fill="white"/>
</mask>
<g mask="url(#mask1_212_8567)">
<path d="M311.879 27.0029H264.632C237.334 27.0029 215.195 49.2341 215.195 76.6589V130.956C215.195 158.381 237.324 180.622 264.632 180.622H311.879C339.177 180.622 361.315 158.391 361.315 130.956V76.6589C361.315 49.2341 339.187 27.0029 311.879 27.0029ZM334.057 121.181L332.927 120.709C332.907 120.649 332.887 120.589 332.857 120.528C330.957 115.154 329.987 109.528 329.987 103.822C329.987 98.1165 330.977 92.3603 332.927 86.9256L334.057 86.4534V121.181ZM334.057 76.6689V83.068L331.737 84.0324C326.518 81.5612 321.808 78.236 317.728 74.1273C317.118 73.5146 316.128 73.5146 315.518 74.1273C314.908 74.7401 314.908 75.7347 315.518 76.3475C319.198 80.0543 323.358 83.1584 327.927 85.6196L319.188 89.2562C312.659 84.8461 307.139 79.3009 302.759 72.7511L306.379 63.9711C307.749 66.5328 309.319 68.9839 311.089 71.2844C311.619 71.9675 312.589 72.0981 313.278 71.5657C313.958 71.0333 314.088 70.0588 313.558 69.3657C311.369 66.5127 309.489 63.4086 307.959 60.1437L310.329 54.3875H311.889C324.118 54.3875 334.067 64.383 334.067 76.6689H334.057ZM329.117 119.132L320.378 115.496C319.628 111.658 319.248 107.73 319.248 103.822C319.248 99.9147 319.628 95.9868 320.378 92.1494L329.117 88.5128C327.628 93.4754 326.868 98.6087 326.868 103.822C326.868 109.036 327.628 114.17 329.117 119.132ZM247.393 88.5128L256.132 92.1494C256.882 95.9868 257.262 99.9147 257.262 103.822C257.262 107.73 256.882 111.658 256.132 115.496L247.393 119.132C248.883 114.17 249.643 109.036 249.643 103.822C249.643 98.6087 248.883 93.4754 247.393 88.5128ZM316.958 114.069L308.839 110.684C308.619 108.403 308.509 106.103 308.509 103.812C308.509 103.782 308.509 103.752 308.509 103.722C308.509 101.472 308.619 99.1914 308.839 96.9412L316.968 93.5557C316.418 96.9412 316.138 100.377 316.138 103.802C316.138 107.228 316.418 110.664 316.968 114.049L316.958 114.069ZM259.552 93.5758L267.682 96.9612C267.902 99.2416 268.012 101.542 268.012 103.833C268.012 103.863 268.012 103.893 268.012 103.923C268.012 106.173 267.902 108.454 267.682 110.704L259.552 114.089C260.102 110.704 260.382 107.268 260.382 103.843C260.382 100.417 260.102 96.9813 259.552 93.5959V93.5758ZM268.862 113.587C272.391 116.5 275.631 119.765 278.531 123.301L275.171 131.458C271.161 125.853 266.332 121.001 260.742 116.962L268.862 113.587ZM305.379 103.913C305.379 105.721 305.449 107.529 305.589 109.338L292.33 103.822L305.589 98.3074C305.449 100.146 305.379 101.994 305.379 103.822C305.379 103.853 305.379 103.883 305.379 103.913ZM288.25 107.911L293.75 121.242C291.93 121.111 290.09 121.041 288.25 121.041C286.41 121.041 284.58 121.111 282.761 121.242L288.25 107.911ZM279.881 120.036C277.491 117.244 274.891 114.632 272.111 112.231L285.37 106.716L279.881 120.036ZM282.761 86.4032C286.4 86.6744 290.11 86.6744 293.75 86.4032L288.25 99.7339L282.761 86.4032ZM291.14 106.716L304.399 112.231C301.619 114.632 299.019 117.244 296.63 120.036L291.14 106.716ZM291.14 100.929L296.63 87.6087C299.019 90.4014 301.619 93.0133 304.399 95.4142L291.14 100.929ZM295.1 83.1484C290.59 83.5804 285.94 83.5804 281.421 83.1484L278.061 74.9913C284.78 76.0863 291.74 76.0863 298.46 74.9913L295.1 83.1484ZM285.38 100.929L272.121 95.4142C274.901 93.0133 277.501 90.4014 279.891 87.6087L285.38 100.929ZM284.19 103.822L270.931 109.338C271.071 107.499 271.141 105.651 271.141 103.822C271.141 103.792 271.141 103.762 271.141 103.732C271.141 101.924 271.071 100.116 270.931 98.3074L284.19 103.822ZM281.431 124.497C285.94 124.065 290.59 124.065 295.11 124.497L298.469 132.654C291.75 131.559 284.79 131.559 278.071 132.654L281.431 124.497ZM297.99 123.301C300.889 119.755 304.139 116.5 307.659 113.587L315.778 116.962C310.199 120.991 305.359 125.853 301.349 131.458L297.99 123.301ZM307.659 94.058C304.129 91.1448 300.889 87.8799 297.99 84.3438L301.349 76.1867C305.359 81.7922 310.189 86.6443 315.778 90.6827L307.659 94.058ZM299.889 71.5557C292.28 73.0525 284.27 73.0525 276.651 71.5557L273.031 62.7757C282.971 65.7894 293.57 65.7894 303.509 62.7757L299.889 71.5557ZM271.461 58.9483L269.581 54.3976H306.969L305.089 58.9483C294.22 62.8762 282.331 62.8762 271.461 58.9483ZM273.781 72.7511C271.701 75.8653 269.322 78.7986 266.692 81.4808C266.092 82.0936 266.092 83.0881 266.712 83.7009C267.322 84.3037 268.312 84.3037 268.912 83.6808C271.191 81.3603 273.291 78.8488 275.191 76.1968L278.551 84.3539C275.651 87.9 272.401 91.1548 268.882 94.0681L260.762 90.6927C262.092 89.7283 263.382 88.7137 264.632 87.6589C265.292 87.0964 265.372 86.1119 264.822 85.4489C264.262 84.7858 263.282 84.7055 262.622 85.258C260.942 86.6845 259.172 88.0206 257.342 89.2562L248.603 85.6196C257.742 80.6872 265.252 73.1429 270.151 63.9711L273.771 72.7511H273.781ZM257.352 118.389C263.882 122.799 269.401 128.344 273.781 134.894L273.001 136.782C272.671 137.586 273.051 138.5 273.841 138.832C274.031 138.912 274.241 138.952 274.441 138.952C275.051 138.952 275.631 138.591 275.881 137.988L276.661 136.099C284.27 134.603 292.28 134.603 299.899 136.099L303.519 144.879C293.58 141.866 282.981 141.866 273.041 144.879L274.031 142.468C274.361 141.665 273.981 140.75 273.191 140.419C272.391 140.087 271.481 140.469 271.151 141.263L270.161 143.674C265.252 134.482 257.762 126.958 248.613 122.025L257.352 118.389ZM271.471 148.697C282.341 144.769 294.23 144.769 305.099 148.697L306.979 153.247H269.591L271.471 148.687V148.697ZM302.789 134.894C307.169 128.344 312.689 122.789 319.218 118.389L327.957 122.025C318.818 126.958 311.309 134.502 306.409 143.674L302.789 134.894ZM264.672 54.3875H266.222L268.592 60.1437C263.692 70.6013 255.292 79.0598 244.863 84.0123C244.843 84.0123 244.833 84.0224 244.823 84.0324L242.493 83.068V76.6689C242.493 64.383 252.443 54.3875 264.672 54.3875ZM242.493 86.4534L243.623 86.9256C243.643 86.9859 243.663 87.0461 243.693 87.1064C245.593 92.4909 246.563 98.1065 246.563 103.812C246.563 109.518 245.573 115.275 243.623 120.709L242.493 121.181V86.4534ZM242.493 130.966V124.567L244.823 123.602C255.282 128.545 263.682 136.993 268.602 147.491L266.232 153.247H264.682C252.453 153.247 242.503 143.252 242.503 130.966H242.493ZM311.919 153.247H310.369L307.999 147.491C312.899 137.034 321.298 128.575 331.717 123.623C331.737 123.623 331.757 123.602 331.767 123.592L334.097 124.557V130.956C334.097 143.242 324.148 153.237 311.919 153.237V153.247Z" fill="url(#paint3_linear_212_8567)"/>
<path d="M145.47 27.0029V90.1703H64.8855C55.0762 90.1703 47.0768 82.1338 47.0768 72.2789V27.0029H19.8186V72.2789C19.8186 89.7987 29.718 105.048 44.257 112.532C50.4365 115.727 57.426 117.555 64.8755 117.555H91.8737C99.4732 127.44 103.903 139.445 104.503 151.992L98.7732 157.758C98.0233 158.511 98.0333 159.727 98.7732 160.47C98.9532 160.651 99.1732 160.792 99.3932 160.882C100.083 161.173 100.913 161.033 101.473 160.46L107.203 154.694C121.352 155.357 134.821 160.942 145.31 170.516V178.663C145.31 178.904 145.37 179.125 145.45 179.336V180.702H172.708V27.0029H145.45H145.47ZM122.592 117.545C124.371 121.332 125.881 125.25 127.101 129.258L119.492 136.913C117.902 130.122 115.422 123.643 112.112 117.545H122.602H122.592ZM138.73 117.545L130.141 126.184C129.171 123.251 128.051 120.368 126.791 117.545H138.73ZM129.801 131.971C135.121 133.598 140.39 135.788 145.3 138.4V149.219C138.201 144.819 130.321 141.544 122.192 139.625L129.801 131.971ZM145.29 134.08C143.29 133.066 141.23 132.121 139.16 131.267C137.081 130.403 134.971 129.62 132.841 128.917L144.13 117.555H145.28V134.09L145.29 134.08ZM110.782 151.108L113.032 148.847C113.782 148.094 113.782 146.878 113.032 146.135C112.282 145.382 111.072 145.382 110.332 146.135L108.083 148.395C106.963 137.275 103.013 126.656 96.6434 117.545H107.713C111.782 124.567 114.662 132.141 116.282 140.148L114.522 141.916C113.772 142.669 113.772 143.885 114.522 144.628C114.702 144.809 114.912 144.95 115.142 145.04C115.832 145.331 116.662 145.191 117.222 144.618L118.982 142.84C128.311 144.719 137.381 148.486 145.31 153.77V165.423C135.461 157.336 123.452 152.343 110.782 151.088V151.108Z" fill="url(#paint4_linear_212_8567)"/>
<path d="M529.444 27.0029V90.1703H448.859C439.05 90.1703 431.05 82.1338 431.05 72.2789V27.0029H403.792V72.2789C403.792 89.7987 413.692 105.048 428.231 112.532C434.41 115.727 441.4 117.555 448.849 117.555H475.847C483.447 127.44 487.876 139.445 488.476 151.992L482.747 157.758C481.997 158.511 482.007 159.727 482.747 160.47C482.927 160.651 483.147 160.792 483.367 160.882C484.057 161.173 484.887 161.033 485.447 160.46L491.176 154.694C505.325 155.357 518.794 160.942 529.284 170.516V178.663C529.284 178.904 529.344 179.125 529.424 179.336V180.702H556.682V27.0029H529.424H529.444ZM506.565 117.545C508.345 121.332 509.855 125.25 511.075 129.258L503.465 136.913C501.876 130.122 499.396 123.643 496.086 117.545H506.575H506.565ZM522.704 117.545L514.115 126.184C513.145 123.251 512.025 120.368 510.765 117.545H522.704ZM513.775 131.971C519.094 133.598 524.364 135.788 529.274 138.4V149.219C522.174 144.819 514.295 141.544 506.165 139.625L513.775 131.971ZM529.264 134.08C527.264 133.066 525.204 132.121 523.134 131.267C521.054 130.403 518.944 129.62 516.814 128.917L528.104 117.555H529.254V134.09L529.264 134.08ZM494.756 151.108L497.006 148.847C497.756 148.094 497.756 146.878 497.006 146.135C496.256 145.382 495.046 145.382 494.306 146.135L492.056 148.395C490.936 137.275 486.987 126.656 480.617 117.545H491.686C495.756 124.567 498.636 132.141 500.256 140.148L498.496 141.916C497.746 142.669 497.746 143.885 498.496 144.628C498.676 144.809 498.886 144.95 499.116 145.04C499.806 145.331 500.636 145.191 501.196 144.618L502.955 142.84C512.285 144.719 521.354 148.486 529.284 153.77V165.423C519.434 157.336 507.425 152.343 494.756 151.088V151.108Z" fill="url(#paint5_linear_212_8567)"/>
</g>
<path d="M238.374 61.7407C238.014 62.8658 237.124 63.7599 236.004 64.1216C237.124 64.4832 238.014 65.3773 238.374 66.5024C238.734 65.3773 239.624 64.4832 240.744 64.1216C239.624 63.7599 238.734 62.8658 238.374 61.7407Z" fill="white"/>
<path d="M244.853 37.3301C244.043 41.8707 240.463 45.4571 235.954 46.2808C240.473 47.0945 244.043 50.6909 244.853 55.2315C245.663 50.6909 249.243 47.1046 253.753 46.2808C249.233 45.4671 245.663 41.8707 244.853 37.3301Z" fill="white"/>
<path d="M229.875 49.7163C229.325 52.0369 227.495 53.8752 225.185 54.4277C227.495 54.9803 229.325 56.8186 229.875 59.1392C230.425 56.8186 232.255 54.9803 234.565 54.4277C232.255 53.8752 230.425 52.0369 229.875 49.7163Z" fill="white"/>
<g clip-path="url(#clip1_212_8567)">
<path d="M55.5077 150.05L62.9394 153.079C62.9988 153.138 63.0582 153.193 63.1177 153.247H55.8073C55.3616 153.247 55 153.616 55 154.072C55 154.528 55.3616 154.898 55.8073 154.898H64.0488L60.619 156.297C60.3119 156.421 60.1113 156.725 60.1113 157.062V163.179C60.1113 163.635 60.4729 164.005 60.9186 164.005C61.3644 164.005 61.7259 163.635 61.7259 163.179V157.619L63.6526 156.834C63.5263 159.037 65.2449 160.872 67.3721 160.872C69.4994 160.872 71.218 159.037 71.0917 156.834L73.0183 157.619V163.179C73.0183 163.635 73.3799 164.005 73.8257 164.005C74.2714 164.005 74.633 163.635 74.633 163.179V157.062C74.633 156.725 74.4324 156.421 74.1253 156.297L70.6955 154.898H78.937C79.3827 154.898 79.7443 154.528 79.7443 154.072C79.7443 153.616 79.3827 153.247 78.937 153.247H71.6241C71.6836 153.191 71.7455 153.135 71.8024 153.079L79.2341 150.05C79.5412 149.925 79.7418 149.621 79.7418 149.285V144.211C79.7418 143.755 79.3802 143.385 78.9345 143.385C78.4887 143.385 78.1272 143.755 78.1272 144.211V148.727L73.37 150.665C73.578 150.108 73.7142 149.518 73.7662 148.9L76.1634 147.924C76.4705 147.8 76.671 147.496 76.671 147.159V140.089C76.671 139.633 76.3095 139.263 75.8637 139.263C75.418 139.263 75.0564 139.633 75.0564 140.089V146.597L73.687 147.154C73.1446 144.091 70.5172 141.761 67.3697 141.761C64.2221 141.761 61.5947 144.091 61.0523 147.154L59.6829 146.597V140.089C59.6829 139.633 59.3213 139.263 58.8756 139.263C58.4298 139.263 58.0683 139.633 58.0683 140.089V147.154C58.0683 147.491 58.2689 147.795 58.5759 147.919L60.9731 148.894C61.0251 149.51 61.1613 150.103 61.3693 150.66L56.6121 148.722V144.205C56.6121 143.75 56.2506 143.38 55.8048 143.38C55.3591 143.38 55 143.752 55 144.208V149.282C55 149.619 55.2006 149.923 55.5077 150.047V150.05ZM67.3697 159.222C66.2033 159.222 65.2548 158.252 65.2548 157.059C65.2548 155.866 66.2033 154.896 67.3697 154.896C68.536 154.896 69.4845 155.866 69.4845 157.059C69.4845 158.252 68.536 159.222 67.3697 159.222ZM67.3697 143.41C70.0194 143.41 72.1764 145.616 72.1764 148.327C72.1764 151.038 70.0194 153.244 67.3697 153.244C64.7199 153.244 62.563 151.038 62.563 148.327C62.563 145.616 64.7199 143.41 67.3697 143.41Z" fill="#DDA923"/>
</g>
<path d="M67.3684 142.355V117" stroke="#DDA923"/>
<g clip-path="url(#clip2_212_8567)">
<path d="M437.378 163.611L442.912 165.867C442.957 165.911 443.001 165.952 443.045 165.992H437.601C437.269 165.992 437 166.267 437 166.607C437 166.946 437.269 167.222 437.601 167.222H443.738L441.184 168.263C440.956 168.355 440.806 168.582 440.806 168.833V173.388C440.806 173.728 441.076 174.003 441.407 174.003C441.739 174.003 442.009 173.728 442.009 173.388V169.248L443.443 168.663C443.349 170.304 444.629 171.67 446.213 171.67C447.797 171.67 449.077 170.304 448.983 168.663L450.418 169.248V173.388C450.418 173.728 450.687 174.003 451.019 174.003C451.351 174.003 451.62 173.728 451.62 173.388V168.833C451.62 168.582 451.471 168.355 451.242 168.263L448.688 167.222H454.825C455.157 167.222 455.427 166.946 455.427 166.607C455.427 166.267 455.157 165.992 454.825 165.992H449.38C449.424 165.95 449.47 165.909 449.512 165.867L455.047 163.611C455.275 163.519 455.425 163.292 455.425 163.041V159.263C455.425 158.923 455.155 158.648 454.824 158.648C454.492 158.648 454.222 158.923 454.222 159.263V162.626L450.68 164.069C450.835 163.654 450.936 163.215 450.975 162.755L452.76 162.028C452.989 161.936 453.138 161.71 453.138 161.459V156.194C453.138 155.854 452.869 155.579 452.537 155.579C452.205 155.579 451.936 155.854 451.936 156.194V161.04L450.916 161.455C450.512 159.174 448.555 157.439 446.211 157.439C443.868 157.439 441.911 159.174 441.507 161.455L440.487 161.04V156.194C440.487 155.854 440.218 155.579 439.886 155.579C439.554 155.579 439.285 155.854 439.285 156.194V161.455C439.285 161.706 439.434 161.932 439.663 162.025L441.448 162.751C441.487 163.209 441.588 163.651 441.743 164.066L438.201 162.623V159.259C438.201 158.919 437.931 158.644 437.599 158.644C437.267 158.644 437 158.921 437 159.261V163.039C437 163.29 437.149 163.517 437.378 163.609V163.611ZM446.211 170.442C445.343 170.442 444.637 169.719 444.637 168.831C444.637 167.942 445.343 167.22 446.211 167.22C447.08 167.22 447.786 167.942 447.786 168.831C447.786 169.719 447.08 170.442 446.211 170.442ZM446.211 158.667C448.185 158.667 449.791 160.31 449.791 162.328C449.791 164.347 448.185 165.99 446.211 165.99C444.238 165.99 442.632 164.347 442.632 162.328C442.632 160.31 444.238 158.667 446.211 158.667Z" fill="#DDA923"/>
</g>
<path d="M446.105 157.882V119" stroke="#DDA923"/>
</g>
<defs>
<filter id="filter0_d_212_8567" x="13.8186" y="19.998" width="568.863" height="185.699" filterUnits="userSpaceOnUse" color-interpolation-filters="sRGB">
<feFlood flood-opacity="0" result="BackgroundImageFix"/>
<feColorMatrix in="SourceAlpha" type="matrix" values="0 0 0 0 0 0 0 0 0 0 0 0 0 0 0 0 0 0 127 0" result="hardAlpha"/>
<feOffset dx="10" dy="10"/>
<feGaussianBlur stdDeviation="8"/>
<feColorMatrix type="matrix" values="0 0 0 0 0.156863 0 0 0 0 0.0823529 0 0 0 0 0.34902 0 0 0 0.75 0"/>
<feBlend mode="normal" in2="BackgroundImageFix" result="effect1_dropShadow_212_8567"/>
<feBlend mode="normal" in="SourceGraphic" in2="effect1_dropShadow_212_8567" result="shape"/>
</filter>
<linearGradient id="paint0_linear_212_8567" x1="215.205" y1="102.808" x2="361.315" y2="102.808" gradientUnits="userSpaceOnUse">
<stop stop-color="#205EA4"/>
<stop offset="0.97" stop-color="#7B9CC7"/>
</linearGradient>
<linearGradient id="paint1_linear_212_8567" x1="19.8186" y1="102.848" x2="172.718" y2="102.848" gradientUnits="userSpaceOnUse">
<stop stop-color="#205EA4"/>
<stop offset="0.97" stop-color="#7B9CC7"/>
</linearGradient>
<linearGradient id="paint2_linear_212_8567" x1="403.792" y1="102.848" x2="556.702" y2="102.848" gradientUnits="userSpaceOnUse">
<stop stop-color="#205EA4"/>
<stop offset="0.97" stop-color="#7B9CC7"/>
</linearGradient>
<linearGradient id="paint3_linear_212_8567" x1="291.03" y1="266.884" x2="288.063" y2="94.0786" gradientUnits="userSpaceOnUse">
<stop stop-color="white"/>
<stop offset="0.08" stop-color="white" stop-opacity="0.96"/>
<stop offset="0.23" stop-color="white" stop-opacity="0.87"/>
<stop offset="0.4" stop-color="white" stop-opacity="0.7"/>
<stop offset="0.61" stop-color="white" stop-opacity="0.48"/>
<stop offset="0.85" stop-color="white" stop-opacity="0.2"/>
<stop offset="1" stop-color="white" stop-opacity="0"/>
</linearGradient>
<linearGradient id="paint4_linear_212_8567" x1="100.013" y1="270.159" x2="97.046" y2="97.3535" gradientUnits="userSpaceOnUse">
<stop stop-color="white"/>
<stop offset="1" stop-color="white" stop-opacity="0"/>
</linearGradient>
<linearGradient id="paint5_linear_212_8567" x1="483.877" y1="263.589" x2="480.92" y2="90.7836" gradientUnits="userSpaceOnUse">
<stop stop-color="white"/>
<stop offset="0.52" stop-color="white" stop-opacity="0.47"/>
<stop offset="1" stop-color="white" stop-opacity="0"/>
</linearGradient>
<clipPath id="clip0_212_8567">
<rect width="582" height="200" fill="white"/>
</clipPath>
<clipPath id="clip1_212_8567">
<rect width="24.7368" height="24.7368" fill="white" transform="translate(55 139.263)"/>
</clipPath>
<clipPath id="clip2_212_8567">
<rect width="18.4211" height="18.4211" fill="white" transform="translate(437 155.579)"/>
</clipPath>
</defs>
</svg>
