<svg width="92" height="80" viewBox="0 0 92 80" fill="none" xmlns="http://www.w3.org/2000/svg">
<g clip-path="url(#clip0_2_4671)">
<path d="M91.9676 40.9969H31.7027V48.2962H91.9676V40.9969Z" fill="#205EA4"/>
<path d="M40.2871 31.6305H39.0414C38.9072 31.6305 38.7969 31.7373 38.7969 31.8694V37.9034C38.7969 38.2826 38.4811 38.5913 38.0931 38.5913H34.1023C33.7171 38.5913 33.404 38.2854 33.404 37.9089V36.4653C33.404 36.3341 33.2947 36.2264 33.1595 36.2264H31.9139C31.7787 36.2264 31.6694 36.3332 31.6694 36.4653V37.9043C31.6694 39.2176 32.7631 40.2864 34.107 40.2864H38.0977C39.4388 40.2864 40.5307 39.2203 40.5307 37.9089V31.8703C40.5307 31.7391 40.4214 31.6314 40.2862 31.6314L40.2871 31.6305Z" fill="#205EA4"/>
<path d="M50.182 31.6278H48.9364C48.8021 31.6278 48.6919 31.7346 48.6919 31.8667V35.9576C48.6919 36.6852 48.3946 37.3622 47.8537 37.8654C47.3138 38.3677 46.6053 38.6248 45.8606 38.5895C44.4233 38.5216 43.298 37.3306 43.298 35.8788V31.8667C43.298 31.7355 43.1887 31.6278 43.0535 31.6278H41.8079C41.6736 31.6278 41.5634 31.7346 41.5634 31.8667V35.9576C41.5634 37.1432 42.044 38.2501 42.9174 39.0737C43.7509 39.8602 44.8373 40.2874 45.9922 40.2874C46.0459 40.2874 46.1005 40.2865 46.1552 40.2846C48.5094 40.2032 50.4247 38.2166 50.4247 35.8562V31.8667C50.4247 31.7355 50.3154 31.6278 50.1802 31.6278H50.182Z" fill="#205EA4"/>
<path d="M60.1852 31.7283C60.101 31.6876 60.0028 31.6975 59.9287 31.7536L55.925 34.7693C55.9055 34.7837 55.8778 34.7846 55.8574 34.7693L51.8537 31.7536C51.7796 31.6975 51.6814 31.6876 51.5971 31.7283C51.5129 31.769 51.461 31.8505 51.461 31.9428V39.9733C51.461 40.1046 51.5703 40.2123 51.7055 40.2123H52.9558C53.0901 40.2123 53.2003 40.1055 53.2003 39.9733V35.0218C53.2003 34.9919 53.2216 34.9783 53.2309 34.9738C53.2401 34.9693 53.2642 34.9611 53.2892 34.9792L55.7425 36.8274C55.8305 36.8934 55.9537 36.8934 56.0408 36.8274L58.4941 34.9792C58.5191 34.9611 58.5423 34.9693 58.5515 34.9738C58.5608 34.9783 58.5821 34.9919 58.5821 35.0218V39.9733C58.5821 40.1046 58.6914 40.2123 58.8266 40.2123H60.0769C60.2121 40.2123 60.3214 40.1055 60.3214 39.9733V31.9428C60.3214 31.8514 60.2695 31.769 60.1852 31.7283Z" fill="#205EA4"/>
<path d="M70.7173 31.6305H71.9639C72.0991 31.6305 72.2084 31.7373 72.2084 31.8694V40.0466C72.2084 40.1787 72.0991 40.2855 71.9639 40.2855H70.7173C70.5821 40.2855 70.4728 40.1787 70.4728 40.0466V31.8694C70.4728 31.7373 70.5821 31.6305 70.7173 31.6305Z" fill="#205EA4"/>
<path d="M81.8597 31.6278H80.6094C80.4751 31.6278 80.3649 31.7346 80.3649 31.8667V36.8183C80.3649 36.8491 80.3436 36.8617 80.3344 36.8663C80.3251 36.8708 80.3001 36.8789 80.2769 36.8608L73.6374 31.8595C73.5633 31.8034 73.4642 31.7943 73.3809 31.8342C73.2966 31.8749 73.2448 31.9563 73.2448 32.0487V40.0493C73.2448 40.1806 73.354 40.2883 73.4893 40.2883H74.7395C74.8738 40.2883 74.984 40.1815 74.984 40.0493V35.1286C74.984 35.0987 75.0053 35.0851 75.0146 35.0806C75.0239 35.0761 75.0479 35.0679 75.072 35.086L81.7115 40.0873C81.7856 40.1435 81.8847 40.1525 81.9681 40.1127C82.0523 40.072 82.1042 39.9905 82.1042 39.8982V31.8667C82.1042 31.7355 81.9949 31.6278 81.8597 31.6278Z" fill="#205EA4"/>
<path d="M87.5694 33.323H91.7555C91.8898 33.323 92 33.2162 92 33.084V31.8667C92 31.7355 91.8907 31.6278 91.7555 31.6278H87.5694C86.3561 31.6278 85.2235 32.0975 84.3807 32.951C83.5388 33.8045 83.098 34.9276 83.1415 36.1151C83.2258 38.4157 85.2587 40.2865 87.6731 40.2865H91.5703C91.8074 40.2865 92 40.0982 92 39.8665V35.877C92 35.6453 91.8074 35.4571 91.5703 35.4571H87.7194C87.5851 35.4571 87.4749 35.5639 87.4749 35.696V36.9151C87.4749 37.0464 87.5842 37.1541 87.7194 37.1541H90.0236C90.1561 37.1541 90.2644 37.26 90.2644 37.3894V38.3578C90.2644 38.4872 90.1561 38.5931 90.0236 38.5931H87.6499C86.1644 38.5931 84.9465 37.4935 84.8762 36.0888C84.84 35.3603 85.1031 34.6688 85.6171 34.1411C86.132 33.6135 86.8248 33.3221 87.5694 33.3221V33.323Z" fill="#205EA4"/>
<path d="M68.6372 32.3781C68.1806 31.9319 67.5749 31.6866 66.9294 31.6866H61.5809L61.4522 31.6894V32.8668C61.4522 33.1691 61.7032 33.4153 62.0125 33.4153H66.9294C67.1016 33.4153 67.2544 33.4768 67.3795 33.5918C67.4693 33.685 67.5758 33.8398 67.5758 34.0516C67.5758 34.3023 67.4258 34.5294 67.1887 34.6326C67.1118 34.6697 67.0266 34.6887 66.9284 34.6887L61.4503 34.6869V40.2285H63.2192V36.4165L67.1498 36.3984V36.4029C67.1739 36.4029 67.2044 36.4029 67.2368 36.3965C67.4712 36.3712 67.7045 36.306 67.9287 36.2047C68.7881 35.8246 69.3438 34.9801 69.3438 34.0525C69.3438 33.4243 69.0928 32.8297 68.6372 32.379V32.3781Z" fill="#205EA4"/>
<path d="M52.0787 42.6541H50.4793C49.8579 42.6541 49.3513 43.1482 49.3513 43.7564V43.7772C49.3513 44.0026 49.4207 44.2189 49.5513 44.4008C49.5921 44.4614 49.6402 44.5167 49.6986 44.571C49.9069 44.7692 50.1829 44.8787 50.4774 44.8787H51.8972C52.0435 44.8787 52.1815 44.9429 52.2751 45.0543C52.3677 45.1647 52.4029 45.3086 52.3733 45.4507C52.3279 45.6679 52.1213 45.8254 51.8824 45.8254H50.6608C50.4497 45.8254 50.2589 45.6869 50.1978 45.4896C50.1616 45.3737 50.0468 45.2932 49.919 45.2932H49.3531V45.352C49.3531 46.0571 49.9403 46.6309 50.6617 46.6309H51.8602C52.5381 46.6309 53.1132 46.1539 53.1975 45.5222C53.2448 45.1683 53.1438 44.8208 52.915 44.5465C52.9002 44.5275 52.8836 44.5049 52.865 44.4895C52.6187 44.2234 52.2658 44.0714 51.8981 44.0714H50.4784C50.3126 44.0714 50.1774 43.9392 50.1774 43.7772V43.7564C50.1774 43.5944 50.3126 43.4623 50.4784 43.4623H52.0834C52.2492 43.4623 52.3844 43.5944 52.3844 43.7564V43.8361H53.2086V43.7564C53.2086 43.1491 52.703 42.6541 52.0806 42.6541H52.0787Z" fill="white"/>
<path d="M58.9238 42.6541H59.4767C59.5517 42.6541 59.6128 42.7138 59.6128 42.7871V46.4978C59.6128 46.5711 59.5517 46.6309 59.4767 46.6309H58.9238C58.8488 46.6309 58.7877 46.5711 58.7877 46.4978V42.7871C58.7877 42.7138 58.8488 42.6541 58.9238 42.6541Z" fill="white"/>
<path d="M62.5997 42.6541H60.7557C60.6501 42.6541 60.5649 42.7382 60.5649 42.8405V46.429C60.5649 46.5395 60.6566 46.63 60.7705 46.63H62.6006C63.1442 46.63 63.6545 46.4227 64.0361 46.0462C64.0732 46.0109 64.1111 45.9693 64.1519 45.9213C64.4621 45.5674 64.6335 45.1122 64.6335 44.6406C64.6335 43.5446 63.7212 42.6541 62.6006 42.6541H62.5997ZM63.4795 45.4525C63.2517 45.6887 62.9312 45.8245 62.5997 45.8245H61.3883V43.4596H62.5497C63.2156 43.4596 63.7675 43.9465 63.8064 44.5673C63.8268 44.8977 63.711 45.2117 63.4795 45.4525Z" fill="white"/>
<path d="M65.5855 43.7564V45.533C65.5855 46.1394 66.0903 46.6327 66.7108 46.6327H69.6541V45.8272H66.7126C66.545 45.8272 66.4089 45.6941 66.4089 45.5303V44.8597H68.7835C68.8752 44.8597 68.9493 44.7873 68.9493 44.6977V44.1836C68.9493 44.113 68.89 44.0551 68.8178 44.0551H66.4089V43.7537C66.4089 43.5917 66.5441 43.4596 66.7099 43.4596H69.6531V42.6541H66.7117C66.0903 42.6541 65.5837 43.1482 65.5837 43.7564H65.5855Z" fill="white"/>
<path d="M57.5059 42.9763C57.2938 42.7681 57.0104 42.6541 56.7104 42.6541H54.1588V43.2043C54.1588 43.3455 54.2765 43.4596 54.42 43.4596H56.7104C56.7909 43.4596 56.8622 43.4876 56.9197 43.5419C56.9613 43.5854 57.0113 43.6578 57.0113 43.7564C57.0113 43.8732 56.9419 43.9791 56.8307 44.027C56.7946 44.0442 56.7548 44.0533 56.7094 44.0533H54.157V46.6345H54.9812V44.8588L56.8122 44.8506V44.8524C56.8233 44.8524 56.8382 44.8524 56.853 44.8497C56.9623 44.8379 57.0706 44.8072 57.1753 44.7601C57.5763 44.5836 57.8347 44.1899 57.8347 43.7573C57.8347 43.465 57.718 43.188 57.505 42.9781L57.5059 42.9763Z" fill="white"/>
<path d="M73.6244 44.7646C74.0245 44.5872 74.2838 44.1945 74.2838 43.7618C74.2838 43.4695 74.1672 43.1926 73.9541 42.9817C73.7411 42.7735 73.4587 42.6595 73.1586 42.6595H70.6061V43.465H73.1586C73.2392 43.465 73.3105 43.493 73.3679 43.5473C73.4096 43.5899 73.4596 43.6623 73.4596 43.7609C73.4596 43.8795 73.391 43.9827 73.2799 44.0315C73.2438 44.0487 73.204 44.0578 73.1586 44.0578H70.6061V46.6372H71.4304V44.8624H72.0741C72.301 44.8624 72.5066 44.9755 72.6214 45.162L73.3068 46.4716C73.3605 46.5738 73.4661 46.6372 73.5837 46.6372H74.319L73.3836 44.8407C73.4661 44.8253 73.5466 44.799 73.6254 44.7637L73.6244 44.7646Z" fill="white"/>
<path d="M14.4599 40.4167C13.3661 40.4167 12.4381 41.0675 12.0778 41.9743L13.3596 43.3536C13.3744 43.3727 13.3892 43.3908 13.4059 43.4089C13.6708 43.6939 14.0551 43.8569 14.4589 43.8569C14.8627 43.8569 15.2471 43.6939 15.5119 43.4089C15.5286 43.3908 15.5444 43.3727 15.5592 43.3536L16.84 41.9743C16.4798 41.0675 15.5527 40.4167 14.458 40.4167H14.4599Z" fill="#DDA923"/>
<path d="M14.4598 36.9776C12.4566 36.9776 10.6617 37.8293 9.46698 39.1642L10.8793 40.6838C11.6323 39.5733 12.952 38.8293 14.4598 38.8293C15.9676 38.8293 17.2864 39.5733 18.0403 40.6838L19.4526 39.1642C18.257 37.8293 16.463 36.9776 14.4598 36.9776Z" fill="#205EA4"/>
<path d="M8.34637 37.9587C9.85135 36.3875 12.0306 35.3901 14.4598 35.3901C16.8891 35.3901 19.0683 36.3875 20.5733 37.9587L21.4948 36.9667C21.793 36.6472 21.768 36.1648 21.4392 35.8716C19.5582 34.1963 17.0789 33.2732 14.4598 33.2732C11.8407 33.2732 9.36142 34.1963 7.48043 35.8716C7.15165 36.1639 7.12665 36.6472 7.42486 36.9667L8.34637 37.9587Z" fill="#205EA4"/>
<path d="M18.8461 48.8727C17.2123 49.8927 15.7453 51.1444 14.4932 52.5816C11.7407 49.4239 7.95094 47.1585 3.63976 46.2815C6.05976 44.8805 8.84374 44.0587 11.7648 43.9745L9.44017 42.111C7.55363 42.1653 5.74673 42.6432 4.13154 43.4596C4.13154 43.4596 4.13154 43.4586 4.13154 43.4577C4.11765 43.465 4.10375 43.4731 4.08986 43.4795C3.96576 43.5428 3.84351 43.608 3.72218 43.675C3.72033 43.6759 3.71848 43.6768 3.71663 43.6786C3.60642 43.7401 3.49621 43.8017 3.38785 43.8659C2.98405 44.1003 2.56636 44.3646 2.12644 44.6597C1.12436 45.3348 0.390858 46.3295 0.041703 47.4689L0.0342939 47.4934C-0.0953657 47.916 0.157471 48.3496 0.596461 48.4482C5.57446 49.5641 10.0033 52.0829 13.4263 55.5565C14.007 56.1457 14.9748 56.1493 15.5555 55.561C18.3145 52.7608 21.7301 50.585 25.5569 49.2591L25.5198 49.2302C23.5972 47.7423 20.9123 47.5812 18.8451 48.8718L18.8461 48.8727Z" fill="#DDA923"/>
<path d="M27.849 31.3807C23.1238 30.2159 18.9164 27.7813 15.6277 24.4688C15.0072 23.8434 13.9791 23.8434 13.3586 24.4688C10.0699 27.7813 5.86152 30.2159 1.13635 31.3807C0.360246 31.5717 -0.100972 32.3636 0.122228 33.1148C0.785345 35.3503 1.14098 37.7134 1.14098 40.1579C1.14098 40.8901 1.10764 41.615 1.04559 42.3309C1.94209 41.7083 2.90713 41.2033 3.92218 40.8313C4.22596 40.72 4.43341 40.4439 4.43341 40.1271V40.1136C4.43341 38.1695 4.13427 36.2942 3.58044 34.5285C3.44892 34.1103 3.70639 33.6705 4.1426 33.57C7.96201 32.6885 11.3471 30.7101 13.9301 27.9931C14.2338 27.6736 14.7515 27.6736 15.0553 27.9931C17.6383 30.7101 21.0234 32.6885 24.8428 33.57C25.2781 33.6705 25.5355 34.1103 25.4049 34.5285C24.8511 36.2951 24.552 38.1704 24.552 40.1136C24.552 41.2557 24.6585 42.3726 24.8567 43.4595C23.2415 42.6423 21.4336 42.1644 19.5462 42.1101L17.2216 43.9736C20.1815 44.0587 23.1794 44.7873 25.6272 46.1132C25.7393 46.1738 25.8421 46.2227 25.9412 46.2652C26.2894 46.4417 26.6302 46.6236 26.9599 46.8092C27.7407 47.249 28.6677 46.5675 28.4714 45.7077C28.062 43.922 27.8462 42.0649 27.8462 40.1579C27.8462 37.7134 28.2028 35.3503 28.865 33.1148C29.0873 32.3636 28.627 31.5717 27.8509 31.3807H27.849Z" fill="#205EA4"/>
</g>
<defs>
<clipPath id="clip0_2_4671">
<rect width="92" height="32" fill="white" transform="translate(0 24)"/>
</clipPath>
</defs>
</svg>
